<svg width="53" height="21" viewBox="0 0 53 21" fill="none" xmlns="http://www.w3.org/2000/svg">
<path d="M15.3021 10.1264V10.634C15.3021 11.3319 15.2112 11.9579 15.0293 12.512C14.8475 13.0661 14.5873 13.5377 14.2489 13.9268C13.9148 14.3159 13.513 14.6141 13.0435 14.8214C12.574 15.0244 12.0537 15.1259 11.4827 15.1259C10.9159 15.1259 10.3978 15.0244 9.92827 14.8214C9.463 14.6141 9.05906 14.3159 8.71646 13.9268C8.37385 13.5377 8.10737 13.0661 7.91704 12.512C7.73093 11.9579 7.63787 11.3319 7.63787 10.634V10.1264C7.63787 9.42848 7.73093 8.8046 7.91704 8.25473C8.10315 7.70064 8.36539 7.22902 8.70377 6.83989C9.04638 6.44652 9.45031 6.14833 9.91558 5.9453C10.3851 5.73804 10.9032 5.63441 11.47 5.63441C12.041 5.63441 12.5613 5.73804 13.0308 5.9453C13.5003 6.14833 13.9042 6.44652 14.2426 6.83989C14.581 7.22902 14.8411 7.70064 15.023 8.25473C15.2091 8.8046 15.3021 9.42848 15.3021 10.1264ZM13.7097 10.634V10.1137C13.7097 9.59767 13.6589 9.14298 13.5574 8.74961C13.4601 8.35202 13.3142 8.01998 13.1196 7.75351C12.9293 7.48281 12.6945 7.27978 12.4154 7.14443C12.1362 7.00485 11.8211 6.93506 11.47 6.93506C11.1189 6.93506 10.8059 7.00485 10.531 7.14443C10.2561 7.27978 10.0213 7.48281 9.82676 7.75351C9.63642 8.01998 9.4905 8.35202 9.38898 8.74961C9.28747 9.14298 9.23671 9.59767 9.23671 10.1137V10.634C9.23671 11.15 9.28747 11.6068 9.38898 12.0044C9.4905 12.402 9.63854 12.7382 9.83311 13.0132C10.0319 13.2839 10.2688 13.489 10.5437 13.6286C10.8186 13.764 11.1316 13.8316 11.4827 13.8316C11.838 13.8316 12.1531 13.764 12.428 13.6286C12.703 13.489 12.9356 13.2839 13.126 13.0132C13.3163 12.7382 13.4601 12.402 13.5574 12.0044C13.6589 11.6068 13.7097 11.15 13.7097 10.634ZM19.8893 8.13418V9.25083H16.0191V8.13418H19.8893ZM17.1357 6.45287H18.6648V13.102C18.6648 13.3135 18.6944 13.4763 18.7536 13.5905C18.8171 13.7005 18.9038 13.7745 19.0137 13.8126C19.1237 13.8507 19.2527 13.8697 19.4008 13.8697C19.5065 13.8697 19.608 13.8634 19.7053 13.8507C19.8026 13.838 19.8808 13.8253 19.94 13.8126L19.9464 14.98C19.8195 15.0181 19.6715 15.0519 19.5023 15.0815C19.3373 15.1111 19.147 15.1259 18.9313 15.1259C18.5802 15.1259 18.2693 15.0646 17.9986 14.9419C17.7279 14.815 17.5164 14.6099 17.3641 14.3265C17.2119 14.0431 17.1357 13.6667 17.1357 13.1972V6.45287ZM22.5794 5.25374V14.999H21.0567V5.25374H22.5794ZM22.3129 11.3128L21.818 11.3065C21.8223 10.8328 21.8878 10.395 22.0147 9.99315C22.1459 9.59133 22.3277 9.24237 22.5604 8.94629C22.7972 8.64598 23.0806 8.41546 23.4105 8.25473C23.7405 8.08977 24.1063 8.00729 24.5082 8.00729C24.8465 8.00729 25.1511 8.05382 25.4218 8.14687C25.6967 8.23993 25.9336 8.39008 26.1324 8.59734C26.3312 8.80037 26.4813 9.06684 26.5828 9.39676C26.6886 9.72245 26.7415 10.12 26.7415 10.5895V14.999H25.2061V10.5769C25.2061 10.2469 25.1574 9.98469 25.0601 9.79012C24.9671 9.59556 24.8296 9.45598 24.6477 9.37138C24.4659 9.28256 24.2438 9.23814 23.9816 9.23814C23.7066 9.23814 23.4634 9.29313 23.2519 9.4031C23.0447 9.51308 22.8713 9.66323 22.7317 9.85357C22.5921 10.0439 22.4863 10.2639 22.4144 10.5134C22.3468 10.763 22.3129 11.0294 22.3129 11.3128ZM31.3159 15.1259C30.8083 15.1259 30.3494 15.0435 29.9391 14.8785C29.5331 14.7093 29.1862 14.4746 28.8986 14.1742C28.6152 13.8739 28.3974 13.5207 28.2451 13.1147C28.0929 12.7086 28.0167 12.2709 28.0167 11.8014V11.5476C28.0167 11.0104 28.095 10.524 28.2515 10.0883C28.408 9.65266 28.6258 9.28044 28.905 8.97167C29.1841 8.65867 29.514 8.41969 29.8947 8.25473C30.2754 8.08977 30.6878 8.00729 31.1319 8.00729C31.6226 8.00729 32.0519 8.08977 32.4199 8.25473C32.7879 8.41969 33.0924 8.65233 33.3335 8.95264C33.5788 9.24872 33.7607 9.6019 33.8791 10.0122C34.0018 10.4225 34.0631 10.8751 34.0631 11.3699V12.0234H28.759V10.9258H32.5531V10.8053C32.5446 10.5303 32.4897 10.2723 32.3881 10.0312C32.2909 9.79012 32.1407 9.59556 31.9377 9.44752C31.7347 9.29948 31.464 9.22546 31.1256 9.22546C30.8718 9.22546 30.6455 9.28044 30.4467 9.39042C30.2521 9.49616 30.0893 9.65054 29.9582 9.85357C29.827 10.0566 29.7255 10.3019 29.6536 10.5895C29.586 10.8729 29.5521 11.1923 29.5521 11.5476V11.8014C29.5521 12.1017 29.5923 12.3808 29.6727 12.6388C29.7573 12.8926 29.8799 13.1147 30.0406 13.305C30.2014 13.4954 30.3959 13.6455 30.6243 13.7555C30.8528 13.8612 31.1129 13.9141 31.4047 13.9141C31.7727 13.9141 32.1005 13.8401 32.3881 13.6921C32.6758 13.544 32.9253 13.3346 33.1368 13.0639L33.9426 13.8443C33.7945 14.06 33.6021 14.2673 33.3652 14.4661C33.1284 14.6607 32.8386 14.8193 32.496 14.9419C32.1576 15.0646 31.7643 15.1259 31.3159 15.1259ZM36.7913 9.44117V14.999H35.2622V8.13418H36.7215L36.7913 9.44117ZM38.8914 8.08977L38.8787 9.51096C38.7856 9.49404 38.6841 9.48135 38.5741 9.47289C38.4684 9.46444 38.3626 9.46021 38.2569 9.46021C37.9947 9.46021 37.7641 9.49827 37.5653 9.57441C37.3665 9.64631 37.1995 9.75206 37.0641 9.89164C36.933 10.027 36.8315 10.1919 36.7596 10.3865C36.6877 10.5811 36.6454 10.7989 36.6327 11.04L36.2837 11.0654C36.2837 10.634 36.326 10.2342 36.4106 9.86626C36.4952 9.49827 36.6221 9.1747 36.7913 8.89554C36.9647 8.61637 37.1804 8.39854 37.4384 8.24204C37.7007 8.08554 38.0031 8.00729 38.3457 8.00729C38.4388 8.00729 38.5382 8.01575 38.6439 8.03267C38.7539 8.04959 38.8364 8.06862 38.8914 8.08977ZM43.7006 13.1401C43.7006 12.9878 43.6625 12.8503 43.5864 12.7277C43.5102 12.6008 43.3643 12.4866 43.1486 12.3851C42.9371 12.2836 42.6241 12.1905 42.2096 12.1059C41.8458 12.0255 41.5117 11.9304 41.2071 11.8204C40.9068 11.7062 40.6488 11.5687 40.4331 11.408C40.2174 11.2473 40.0503 11.0569 39.9319 10.837C39.8134 10.617 39.7542 10.3633 39.7542 10.0756C39.7542 9.79647 39.8156 9.53211 39.9382 9.28256C40.0609 9.033 40.2364 8.81306 40.4648 8.62272C40.6932 8.43238 40.9703 8.28223 41.296 8.17225C41.6259 8.06228 41.9939 8.00729 42.3999 8.00729C42.9752 8.00729 43.4679 8.10458 43.8782 8.29914C44.2927 8.48948 44.61 8.74961 44.8299 9.07953C45.0498 9.40522 45.1598 9.77321 45.1598 10.1835H43.6308C43.6308 10.0016 43.5842 9.83242 43.4912 9.67592C43.4024 9.51519 43.267 9.38619 43.0851 9.2889C42.9033 9.18739 42.6749 9.13663 42.3999 9.13663C42.1377 9.13663 41.9198 9.17893 41.7464 9.26352C41.5772 9.34389 41.4503 9.44963 41.3658 9.58075C41.2854 9.71187 41.2452 9.85569 41.2452 10.0122C41.2452 10.1264 41.2664 10.23 41.3087 10.3231C41.3552 10.4119 41.4313 10.4944 41.5371 10.5705C41.6428 10.6424 41.7866 10.7101 41.9685 10.7735C42.1546 10.837 42.3872 10.8983 42.6664 10.9575C43.1909 11.0675 43.6413 11.2092 44.0178 11.3826C44.3985 11.5518 44.6903 11.7718 44.8933 12.0425C45.0964 12.3089 45.1979 12.6473 45.1979 13.0576C45.1979 13.3621 45.1323 13.6413 45.0012 13.8951C44.8743 14.1446 44.6882 14.3625 44.4429 14.5486C44.1976 14.7305 43.9036 14.8721 43.561 14.9737C43.2226 15.0752 42.8419 15.1259 42.419 15.1259C41.7972 15.1259 41.2706 15.016 40.8392 14.796C40.4077 14.5718 40.0799 14.2863 39.8557 13.9395C39.6358 13.5884 39.5258 13.2247 39.5258 12.8482H41.0041C41.021 13.1316 41.0993 13.3579 41.2389 13.5271C41.3827 13.6921 41.5603 13.8126 41.7718 13.8887C41.9875 13.9606 42.2096 13.9966 42.438 13.9966C42.7129 13.9966 42.9434 13.9606 43.1296 13.8887C43.3157 13.8126 43.4574 13.7111 43.5546 13.5842C43.6519 13.4531 43.7006 13.305 43.7006 13.1401Z" fill="white"/>
<rect x="1" y="1" width="50.9942" height="18.9981" rx="3.99807" stroke="white" stroke-width="0.999518"/>
</svg>
