<svg width="53" height="21" viewBox="0 0 53 21" fill="none" xmlns="http://www.w3.org/2000/svg">
<path d="M12.796 12.6198C12.796 12.4295 12.7664 12.2603 12.7072 12.1122C12.6522 11.9642 12.5528 11.8289 12.409 11.7062C12.2652 11.5835 12.0622 11.4651 11.7999 11.3509C11.5419 11.2325 11.212 11.1119 10.8102 10.9893C10.3703 10.8539 9.96423 10.7037 9.59201 10.5388C9.22402 10.3696 8.90256 10.175 8.62763 9.95508C8.3527 9.73091 8.1391 9.47501 7.98683 9.18739C7.83456 8.89554 7.75842 8.55927 7.75842 8.1786C7.75842 7.80215 7.83667 7.45954 7.99317 7.15077C8.1539 6.842 8.38019 6.57553 8.67204 6.35135C8.96813 6.12295 9.31708 5.94741 9.7189 5.82475C10.1207 5.69786 10.5648 5.63441 11.0513 5.63441C11.7365 5.63441 12.3265 5.76131 12.8214 6.01509C13.3205 6.26887 13.7033 6.60937 13.9698 7.03657C14.2405 7.46377 14.3758 7.93539 14.3758 8.45141H12.796C12.796 8.14687 12.7305 7.87829 12.5993 7.64565C12.4725 7.40879 12.2779 7.22268 12.0156 7.08733C11.7576 6.95198 11.4298 6.8843 11.0322 6.8843C10.6558 6.8843 10.3428 6.9414 10.0932 7.0556C9.84368 7.16981 9.65757 7.32419 9.53491 7.51876C9.41225 7.71333 9.35092 7.93327 9.35092 8.1786C9.35092 8.35202 9.3911 8.51063 9.47146 8.65444C9.55183 8.79402 9.67449 8.92514 9.83945 9.04781C10.0044 9.16624 10.2117 9.27833 10.4612 9.38407C10.7108 9.48981 11.0047 9.59133 11.3431 9.68861C11.8549 9.84088 12.3012 10.0101 12.6818 10.1962C13.0625 10.3781 13.3797 10.5853 13.6335 10.8179C13.8873 11.0506 14.0776 11.3149 14.2045 11.611C14.3314 11.9029 14.3949 12.2349 14.3949 12.6071C14.3949 12.9963 14.3166 13.3473 14.1601 13.6603C14.0036 13.9691 13.7794 14.2335 13.4876 14.4534C13.2 14.6691 12.8531 14.8362 12.4471 14.9546C12.0453 15.0688 11.5969 15.1259 11.102 15.1259C10.6579 15.1259 10.2201 15.0667 9.78869 14.9483C9.36149 14.8298 8.97235 14.6501 8.62129 14.409C8.27022 14.1637 7.99106 13.8591 7.7838 13.4954C7.57654 13.1274 7.47292 12.6981 7.47292 12.2074H9.06541C9.06541 12.5077 9.11617 12.7636 9.21768 12.9751C9.32342 13.1866 9.46935 13.36 9.65546 13.4954C9.84156 13.6265 10.0573 13.7238 10.3026 13.7872C10.5522 13.8507 10.8186 13.8824 11.102 13.8824C11.4742 13.8824 11.7851 13.8295 12.0347 13.7238C12.2885 13.618 12.4788 13.47 12.6057 13.2797C12.7326 13.0893 12.796 12.8694 12.796 12.6198ZM17.1865 9.45386V17.6384H15.6574V8.13418H17.0659L17.1865 9.45386ZM21.6594 11.5032V11.6364C21.6594 12.1355 21.6002 12.5987 21.4818 13.0259C21.3676 13.4488 21.1963 13.8189 20.9679 14.1362C20.7437 14.4492 20.4666 14.6924 20.1367 14.8658C19.8068 15.0392 19.4261 15.1259 18.9947 15.1259C18.5675 15.1259 18.1932 15.0477 17.8717 14.8912C17.5545 14.7305 17.2859 14.5042 17.0659 14.2123C16.846 13.9205 16.6684 13.5778 16.533 13.1845C16.4019 12.7869 16.3088 12.3512 16.2538 11.8775V11.3636C16.3088 10.8602 16.4019 10.4034 16.533 9.99315C16.6684 9.58287 16.846 9.22969 17.0659 8.9336C17.2859 8.63752 17.5545 8.40912 17.8717 8.24839C18.1889 8.08766 18.559 8.00729 18.982 8.00729C19.4134 8.00729 19.7962 8.09189 20.1304 8.26108C20.4645 8.42604 20.7458 8.6629 20.9742 8.97167C21.2026 9.27621 21.3739 9.6442 21.4881 10.0756C21.6023 10.5028 21.6594 10.9787 21.6594 11.5032ZM20.1304 11.6364V11.5032C20.1304 11.1859 20.1008 10.892 20.0416 10.6213C19.9823 10.3463 19.8893 10.1052 19.7624 9.89798C19.6355 9.69073 19.4727 9.53 19.2739 9.41579C19.0793 9.29736 18.8445 9.23814 18.5696 9.23814C18.2989 9.23814 18.0663 9.28467 17.8717 9.37773C17.6771 9.46655 17.5143 9.59133 17.3832 9.75206C17.2521 9.91279 17.1505 10.101 17.0786 10.3167C17.0067 10.5282 16.956 10.7587 16.9264 11.0083V12.2391C16.9771 12.5437 17.0638 12.8228 17.1865 13.0766C17.3092 13.3304 17.4826 13.5334 17.7067 13.6857C17.9352 13.8337 18.227 13.9078 18.5823 13.9078C18.8572 13.9078 19.092 13.8486 19.2866 13.7301C19.4811 13.6117 19.6397 13.4488 19.7624 13.2416C19.8893 13.0301 19.9823 12.7869 20.0416 12.512C20.1008 12.237 20.1304 11.9452 20.1304 11.6364ZM22.6682 11.6427V11.4968C22.6682 11.0019 22.7401 10.543 22.8839 10.12C23.0278 9.69284 23.235 9.32274 23.5057 9.00974C23.7806 8.69251 24.1148 8.44719 24.5082 8.27377C24.9058 8.09612 25.3541 8.00729 25.8532 8.00729C26.3565 8.00729 26.8049 8.09612 27.1983 8.27377C27.5959 8.44719 27.9321 8.69251 28.2071 9.00974C28.482 9.32274 28.6914 9.69284 28.8352 10.12C28.979 10.543 29.0509 11.0019 29.0509 11.4968V11.6427C29.0509 12.1376 28.979 12.5966 28.8352 13.0195C28.6914 13.4425 28.482 13.8126 28.2071 14.1298C27.9321 14.4428 27.598 14.6882 27.2046 14.8658C26.8112 15.0392 26.365 15.1259 25.8659 15.1259C25.3626 15.1259 24.9121 15.0392 24.5145 14.8658C24.1211 14.6882 23.787 14.4428 23.5121 14.1298C23.2371 13.8126 23.0278 13.4425 22.8839 13.0195C22.7401 12.5966 22.6682 12.1376 22.6682 11.6427ZM24.1973 11.4968V11.6427C24.1973 11.9515 24.229 12.2434 24.2924 12.5183C24.3559 12.7932 24.4553 13.0343 24.5906 13.2416C24.726 13.4488 24.8994 13.6117 25.1109 13.7301C25.3224 13.8486 25.574 13.9078 25.8659 13.9078C26.1493 13.9078 26.3946 13.8486 26.6019 13.7301C26.8134 13.6117 26.9868 13.4488 27.1221 13.2416C27.2575 13.0343 27.3569 12.7932 27.4203 12.5183C27.488 12.2434 27.5218 11.9515 27.5218 11.6427V11.4968C27.5218 11.1923 27.488 10.9047 27.4203 10.634C27.3569 10.359 27.2554 10.1158 27.1158 9.90433C26.9804 9.69284 26.807 9.52788 26.5955 9.40945C26.3883 9.28679 26.1408 9.22546 25.8532 9.22546C25.5656 9.22546 25.316 9.28679 25.1045 9.40945C24.8973 9.52788 24.726 9.69284 24.5906 9.90433C24.4553 10.1158 24.3559 10.359 24.2924 10.634C24.229 10.9047 24.1973 11.1923 24.1973 11.4968ZM31.8679 9.44117V14.999H30.3388V8.13418H31.7981L31.8679 9.44117ZM33.968 8.08977L33.9553 9.51096C33.8622 9.49404 33.7607 9.48135 33.6507 9.47289C33.545 9.46444 33.4392 9.46021 33.3335 9.46021C33.0712 9.46021 32.8407 9.49827 32.6419 9.57441C32.4431 9.64631 32.2761 9.75206 32.1407 9.89164C32.0096 10.027 31.9081 10.1919 31.8362 10.3865C31.7643 10.5811 31.722 10.7989 31.7093 11.04L31.3603 11.0654C31.3603 10.634 31.4026 10.2342 31.4872 9.86626C31.5718 9.49827 31.6987 9.1747 31.8679 8.89554C32.0413 8.61637 32.257 8.39854 32.515 8.24204C32.7773 8.08554 33.0797 8.00729 33.4223 8.00729C33.5154 8.00729 33.6148 8.01575 33.7205 8.03267C33.8305 8.04959 33.913 8.06862 33.968 8.08977ZM38.3901 8.13418V9.25083H34.5199V8.13418H38.3901ZM35.6366 6.45287H37.1656V13.102C37.1656 13.3135 37.1952 13.4763 37.2545 13.5905C37.3179 13.7005 37.4046 13.7745 37.5146 13.8126C37.6246 13.8507 37.7536 13.8697 37.9016 13.8697C38.0073 13.8697 38.1089 13.8634 38.2061 13.8507C38.3034 13.838 38.3817 13.8253 38.4409 13.8126L38.4472 14.98C38.3203 15.0181 38.1723 15.0519 38.0031 15.0815C37.8382 15.1111 37.6478 15.1259 37.4321 15.1259C37.081 15.1259 36.7701 15.0646 36.4994 14.9419C36.2287 14.815 36.0173 14.6099 35.865 14.3265C35.7127 14.0431 35.6366 13.6667 35.6366 13.1972V6.45287ZM43.4214 13.1401C43.4214 12.9878 43.3833 12.8503 43.3072 12.7277C43.2311 12.6008 43.0851 12.4866 42.8694 12.3851C42.6579 12.2836 42.3449 12.1905 41.9304 12.1059C41.5667 12.0255 41.2325 11.9304 40.928 11.8204C40.6277 11.7062 40.3696 11.5687 40.1539 11.408C39.9382 11.2473 39.7711 11.0569 39.6527 10.837C39.5343 10.617 39.4751 10.3633 39.4751 10.0756C39.4751 9.79647 39.5364 9.53211 39.6591 9.28256C39.7817 9.033 39.9573 8.81306 40.1857 8.62272C40.4141 8.43238 40.6911 8.28223 41.0168 8.17225C41.3467 8.06228 41.7147 8.00729 42.1208 8.00729C42.696 8.00729 43.1888 8.10458 43.599 8.29914C44.0136 8.48948 44.3308 8.74961 44.5507 9.07953C44.7707 9.40522 44.8807 9.77321 44.8807 10.1835H43.3516C43.3516 10.0016 43.3051 9.83242 43.212 9.67592C43.1232 9.51519 42.9879 9.38619 42.806 9.2889C42.6241 9.18739 42.3957 9.13663 42.1208 9.13663C41.8585 9.13663 41.6407 9.17893 41.4673 9.26352C41.2981 9.34389 41.1712 9.44963 41.0866 9.58075C41.0062 9.71187 40.966 9.85569 40.966 10.0122C40.966 10.1264 40.9872 10.23 41.0295 10.3231C41.076 10.4119 41.1522 10.4944 41.2579 10.5705C41.3636 10.6424 41.5074 10.7101 41.6893 10.7735C41.8754 10.837 42.1081 10.8983 42.3872 10.9575C42.9117 11.0675 43.3622 11.2092 43.7386 11.3826C44.1193 11.5518 44.4112 11.7718 44.6142 12.0425C44.8172 12.3089 44.9187 12.6473 44.9187 13.0576C44.9187 13.3621 44.8532 13.6413 44.722 13.8951C44.5952 14.1446 44.409 14.3625 44.1637 14.5486C43.9184 14.7305 43.6244 14.8721 43.2818 14.9737C42.9434 15.0752 42.5628 15.1259 42.1398 15.1259C41.518 15.1259 40.9914 15.016 40.56 14.796C40.1286 14.5718 39.8008 14.2863 39.5766 13.9395C39.3566 13.5884 39.2467 13.2247 39.2467 12.8482H40.7249C40.7419 13.1316 40.8201 13.3579 40.9597 13.5271C41.1035 13.6921 41.2812 13.8126 41.4926 13.8887C41.7084 13.9606 41.9304 13.9966 42.1588 13.9966C42.4338 13.9966 42.6643 13.9606 42.8504 13.8887C43.0365 13.8126 43.1782 13.7111 43.2755 13.5842C43.3728 13.4531 43.4214 13.305 43.4214 13.1401Z" fill="#6379F9"/>
<rect x="1" y="1" width="50.9942" height="18.9981" rx="3.99807" stroke="#6379F9" stroke-width="0.999518"/>
</svg>
