<svg width="73" height="21" viewBox="0 0 73 21" fill="none" xmlns="http://www.w3.org/2000/svg">
<path d="M9.63642 5.7613V14.999H8.04393V5.7613H9.63642ZM12.98 9.59978V14.999H11.451V8.13418H12.8912L12.98 9.59978ZM12.7072 11.3128L12.2123 11.3065C12.2166 10.8201 12.2842 10.3738 12.4154 9.96777C12.5507 9.56172 12.7368 9.21276 12.9737 8.92091C13.2148 8.62906 13.5024 8.40488 13.8365 8.24838C14.1707 8.08765 14.5429 8.00729 14.9532 8.00729C15.2831 8.00729 15.5813 8.05382 15.8478 8.14687C16.1185 8.23569 16.349 8.38162 16.5393 8.58465C16.7339 8.78767 16.882 9.05203 16.9835 9.37772C17.085 9.69918 17.1357 10.0947 17.1357 10.5642V14.999H15.6003V10.5578C15.6003 10.2279 15.5517 9.96777 15.4544 9.77743C15.3614 9.58286 15.2239 9.4454 15.042 9.36503C14.8644 9.28044 14.6423 9.23814 14.3758 9.23814C14.1136 9.23814 13.8788 9.29313 13.6716 9.4031C13.4643 9.51307 13.2888 9.66323 13.145 9.85357C13.0054 10.0439 12.8975 10.2639 12.8214 10.5134C12.7453 10.763 12.7072 11.0294 12.7072 11.3128ZM21.8434 8.13418V9.25083H17.9732V8.13418H21.8434ZM19.0899 6.45286H20.6189V13.102C20.6189 13.3135 20.6485 13.4763 20.7077 13.5905C20.7712 13.7005 20.8579 13.7745 20.9679 13.8126C21.0778 13.8507 21.2069 13.8697 21.3549 13.8697C21.4606 13.8697 21.5621 13.8634 21.6594 13.8507C21.7567 13.838 21.835 13.8253 21.8942 13.8126L21.9005 14.98C21.7736 15.0181 21.6256 15.0519 21.4564 15.0815C21.2914 15.1111 21.1011 15.1259 20.8854 15.1259C20.5343 15.1259 20.2234 15.0646 19.9527 14.9419C19.682 14.815 19.4705 14.6099 19.3183 14.3265C19.166 14.0431 19.0899 13.6667 19.0899 13.1972V6.45286ZM26.0499 15.1259C25.5423 15.1259 25.0834 15.0434 24.6731 14.8785C24.2671 14.7093 23.9202 14.4745 23.6326 14.1742C23.3492 13.8739 23.1314 13.5207 22.9791 13.1147C22.8268 12.7086 22.7507 12.2709 22.7507 11.8014V11.5476C22.7507 11.0104 22.829 10.524 22.9855 10.0883C23.142 9.65265 23.3598 9.28044 23.6389 8.97167C23.9181 8.65867 24.248 8.41969 24.6287 8.25473C25.0094 8.08977 25.4218 8.00729 25.8659 8.00729C26.3565 8.00729 26.7859 8.08977 27.1539 8.25473C27.5218 8.41969 27.8264 8.65232 28.0675 8.95263C28.3128 9.24872 28.4947 9.6019 28.6131 10.0122C28.7358 10.4225 28.7971 10.875 28.7971 11.3699V12.0234H23.493V10.9258H27.2871V10.8053C27.2786 10.5303 27.2236 10.2723 27.1221 10.0312C27.0248 9.79012 26.8747 9.59555 26.6717 9.44751C26.4686 9.29947 26.1979 9.22545 25.8596 9.22545C25.6058 9.22545 25.3795 9.28044 25.1807 9.39041C24.9861 9.49615 24.8233 9.65054 24.6922 9.85357C24.561 10.0566 24.4595 10.3019 24.3876 10.5895C24.3199 10.8729 24.2861 11.1923 24.2861 11.5476V11.8014C24.2861 12.1017 24.3263 12.3808 24.4066 12.6388C24.4912 12.8926 24.6139 13.1147 24.7746 13.305C24.9354 13.4954 25.1299 13.6455 25.3583 13.7555C25.5867 13.8612 25.8469 13.9141 26.1387 13.9141C26.5067 13.9141 26.8345 13.8401 27.1221 13.692C27.4098 13.544 27.6593 13.3346 27.8708 13.0639L28.6766 13.8443C28.5285 14.06 28.3361 14.2673 28.0992 14.4661C27.8623 14.6607 27.5726 14.8193 27.23 14.9419C26.8916 15.0646 26.4982 15.1259 26.0499 15.1259ZM31.5253 9.44117V14.999H29.9962V8.13418H31.4555L31.5253 9.44117ZM33.6253 8.08977L33.6127 9.51096C33.5196 9.49404 33.4181 9.48135 33.3081 9.47289C33.2024 9.46443 33.0966 9.4602 32.9909 9.4602C32.7286 9.4602 32.4981 9.49827 32.2993 9.5744C32.1005 9.64631 31.9335 9.75205 31.7981 9.89163C31.667 10.027 31.5655 10.1919 31.4936 10.3865C31.4217 10.5811 31.3794 10.7989 31.3667 11.04L31.0177 11.0654C31.0177 10.634 31.06 10.2342 31.1446 9.86626C31.2292 9.49827 31.3561 9.17469 31.5253 8.89553C31.6987 8.61637 31.9144 8.39854 32.1724 8.24204C32.4347 8.08554 32.7371 8.00729 33.0797 8.00729C33.1728 8.00729 33.2722 8.01575 33.3779 8.03267C33.4879 8.04959 33.5704 8.06862 33.6253 8.08977ZM36.0997 9.59978V14.999H34.5707V8.13418H36.0109L36.0997 9.59978ZM35.8269 11.3128L35.332 11.3065C35.3363 10.8201 35.4039 10.3738 35.5351 9.96777C35.6704 9.56172 35.8565 9.21276 36.0934 8.92091C36.3345 8.62906 36.6221 8.40488 36.9563 8.24838C37.2904 8.08765 37.6626 8.00729 38.0729 8.00729C38.4028 8.00729 38.701 8.05382 38.9675 8.14687C39.2382 8.23569 39.4687 8.38162 39.6591 8.58465C39.8536 8.78767 40.0017 9.05203 40.1032 9.37772C40.2047 9.69918 40.2554 10.0947 40.2554 10.5642V14.999H38.7201V10.5578C38.7201 10.2279 38.6714 9.96777 38.5741 9.77743C38.4811 9.58286 38.3436 9.4454 38.1617 9.36503C37.9841 9.28044 37.762 9.23814 37.4955 9.23814C37.2333 9.23814 36.9986 9.29313 36.7913 9.4031C36.584 9.51307 36.4085 9.66323 36.2647 9.85357C36.1251 10.0439 36.0173 10.2639 35.9411 10.5134C35.865 10.763 35.8269 11.0294 35.8269 11.3128ZM45.6674 13.1401C45.6674 12.9878 45.6293 12.8503 45.5532 12.7277C45.4771 12.6008 45.3311 12.4866 45.1154 12.3851C44.9039 12.2835 44.5909 12.1905 44.1764 12.1059C43.8127 12.0255 43.4785 11.9304 43.174 11.8204C42.8737 11.7062 42.6156 11.5687 42.3999 11.408C42.1842 11.2473 42.0171 11.0569 41.8987 10.837C41.7803 10.617 41.721 10.3632 41.721 10.0756C41.721 9.79647 41.7824 9.53211 41.905 9.28255C42.0277 9.033 42.2032 8.81305 42.4316 8.62272C42.66 8.43238 42.9371 8.28222 43.2628 8.17225C43.5927 8.06228 43.9607 8.00729 44.3667 8.00729C44.942 8.00729 45.4348 8.10457 45.845 8.29914C46.2596 8.48948 46.5768 8.74961 46.7967 9.07953C47.0167 9.40522 47.1266 9.7732 47.1266 10.1835H45.5976C45.5976 10.0016 45.5511 9.83242 45.458 9.67592C45.3692 9.51519 45.2338 9.38618 45.052 9.2889C44.8701 9.18738 44.6417 9.13663 44.3667 9.13663C44.1045 9.13663 43.8867 9.17892 43.7133 9.26352C43.5441 9.34388 43.4172 9.44963 43.3326 9.58075C43.2522 9.71187 43.212 9.85568 43.212 10.0122C43.212 10.1264 43.2332 10.23 43.2755 10.3231C43.322 10.4119 43.3981 10.4944 43.5039 10.5705C43.6096 10.6424 43.7534 10.7101 43.9353 10.7735C44.1214 10.837 44.3541 10.8983 44.6332 10.9575C45.1577 11.0675 45.6082 11.2092 45.9846 11.3826C46.3653 11.5518 46.6571 11.7717 46.8602 12.0425C47.0632 12.3089 47.1647 12.6473 47.1647 13.0576C47.1647 13.3621 47.0992 13.6413 46.968 13.8951C46.8411 14.1446 46.655 14.3625 46.4097 14.5486C46.1644 14.7304 45.8704 14.8721 45.5278 14.9737C45.1894 15.0752 44.8088 15.1259 44.3858 15.1259C43.764 15.1259 43.2374 15.016 42.806 14.796C42.3745 14.5718 42.0467 14.2863 41.8226 13.9395C41.6026 13.5884 41.4926 13.2247 41.4926 12.8482H42.9709C42.9879 13.1316 43.0661 13.3579 43.2057 13.5271C43.3495 13.692 43.5271 13.8126 43.7386 13.8887C43.9543 13.9606 44.1764 13.9966 44.4048 13.9966C44.6797 13.9966 44.9103 13.9606 45.0964 13.8887C45.2825 13.8126 45.4242 13.7111 45.5215 13.5842C45.6187 13.4531 45.6674 13.305 45.6674 13.1401ZM50.0134 5.25373V14.999H48.4907V5.25373H50.0134ZM49.747 11.3128L49.2521 11.3065C49.2563 10.8327 49.3219 10.395 49.4488 9.99315C49.5799 9.59132 49.7618 9.24237 49.9944 8.94629C50.2313 8.64598 50.5147 8.41546 50.8446 8.25473C51.1745 8.08977 51.5404 8.00729 51.9422 8.00729C52.2806 8.00729 52.5851 8.05382 52.8558 8.14687C53.1307 8.23992 53.3676 8.39008 53.5664 8.59734C53.7652 8.80036 53.9154 9.06684 54.0169 9.39676C54.1226 9.72245 54.1755 10.12 54.1755 10.5895V14.999H52.6401V10.5769C52.6401 10.2469 52.5915 9.98469 52.4942 9.79012C52.4011 9.59555 52.2637 9.45597 52.0818 9.37138C51.8999 9.28255 51.6778 9.23814 51.4156 9.23814C51.1407 9.23814 50.8975 9.29313 50.686 9.4031C50.4787 9.51307 50.3053 9.66323 50.1657 9.85357C50.0261 10.0439 49.9204 10.2639 49.8485 10.5134C49.7808 10.763 49.747 11.0294 49.747 11.3128ZM57.3605 8.13418V14.999H55.8251V8.13418H57.3605ZM55.7236 6.33232C55.7236 6.09968 55.7997 5.90723 55.952 5.75496C56.1085 5.59846 56.3242 5.52021 56.5991 5.52021C56.8698 5.52021 57.0834 5.59846 57.2399 5.75496C57.3964 5.90723 57.4747 6.09968 57.4747 6.33232C57.4747 6.56072 57.3964 6.75106 57.2399 6.90333C57.0834 7.0556 56.8698 7.13173 56.5991 7.13173C56.3242 7.13173 56.1085 7.0556 55.952 6.90333C55.7997 6.75106 55.7236 6.56072 55.7236 6.33232ZM60.5708 9.45386V17.6384H59.0418V8.13418H60.4503L60.5708 9.45386ZM65.0438 11.5032V11.6364C65.0438 12.1355 64.9846 12.5987 64.8661 13.0259C64.7519 13.4488 64.5806 13.8189 64.3522 14.1362C64.1281 14.4492 63.851 14.6924 63.5211 14.8658C63.1912 15.0392 62.8105 15.1259 62.3791 15.1259C61.9519 15.1259 61.5775 15.0477 61.2561 14.8912C60.9388 14.7304 60.6702 14.5042 60.4503 14.2123C60.2304 13.9205 60.0527 13.5778 59.9174 13.1845C59.7862 12.7869 59.6932 12.3512 59.6382 11.8775V11.3636C59.6932 10.8602 59.7862 10.4034 59.9174 9.99315C60.0527 9.58286 60.2304 9.22968 60.4503 8.9336C60.6702 8.63752 60.9388 8.40911 61.2561 8.24838C61.5733 8.08765 61.9434 8.00729 62.3664 8.00729C62.7978 8.00729 63.1806 8.09188 63.5147 8.26107C63.8489 8.42603 64.1302 8.6629 64.3586 8.97167C64.587 9.27621 64.7583 9.6442 64.8725 10.0756C64.9867 10.5028 65.0438 10.9787 65.0438 11.5032ZM63.5147 11.6364V11.5032C63.5147 11.1859 63.4851 10.892 63.4259 10.6213C63.3667 10.3463 63.2736 10.1052 63.1468 9.89798C63.0199 9.69072 62.857 9.52999 62.6582 9.41579C62.4637 9.29736 62.2289 9.23814 61.954 9.23814C61.6833 9.23814 61.4506 9.28467 61.2561 9.37772C61.0615 9.46655 60.8987 9.59132 60.7675 9.75205C60.6364 9.91278 60.5349 10.101 60.463 10.3167C60.3911 10.5282 60.3403 10.7587 60.3107 11.0083V12.2391C60.3615 12.5437 60.4482 12.8228 60.5708 13.0766C60.6935 13.3304 60.8669 13.5334 61.0911 13.6857C61.3195 13.8337 61.6114 13.9078 61.9667 13.9078C62.2416 13.9078 62.4763 13.8485 62.6709 13.7301C62.8655 13.6117 63.0241 13.4488 63.1468 13.2416C63.2736 13.0301 63.3667 12.7869 63.4259 12.512C63.4851 12.237 63.5147 11.9452 63.5147 11.6364Z" fill="#2895C4"/>
<rect x="1" y="1" width="70.9942" height="18.9981" rx="3.99807" stroke="#2895C4" stroke-width="0.999518"/>
</svg>
